<svg class="icon" style="width: 1em; height: 1em;vertical-align: middle;fill: currentColor;overflow: hidden;" viewBox="0 0 1024 1024" version="1.1" xmlns="http://www.w3.org/2000/svg"><path d="M198.88 902.88a8 8 0 0 1-5.6-2.4L124.64 832a8 8 0 0 1 0-11.36L797.92 147.2a8 8 0 0 1 11.36 0l68.64 68.64a8 8 0 0 1 0 11.36L204.48 900.64a8 8 0 0 1-5.6 2.24z m-57.28-76.64l57.28 57.28 662.08-661.92-57.28-57.28zM868.64 227.2a8 8 0 0 1-5.6-2.4L800 162.24a8 8 0 0 1 0-11.36l27.36-27.36a39.2 39.2 0 0 1 55.36 0l18.56 18.56a39.2 39.2 0 0 1 0 55.36L874.24 224a8 8 0 0 1-5.6 3.2z m-51.2-70.56l51.2 51.2 21.76-21.76a23.2 23.2 0 0 0 0-32l-18.56-19.36a23.2 23.2 0 0 0-32 0zM908.32 167.52a8 8 0 0 1-5.6-2.4l-42.72-42.72a8 8 0 0 1 0-11.36l11.04-10.88a26.72 26.72 0 0 1 37.76 0l16 16a26.72 26.72 0 0 1 0 37.76l-11.04 10.88a8 8 0 0 1-5.44 2.72z m-32-50.72l32 32 5.28-5.28a10.72 10.72 0 0 0 0-15.2l-16-16a10.72 10.72 0 0 0-15.2 0zM923.04 132.64a8 8 0 0 1-5.6-13.6L955.68 80a7.84 7.84 0 1 0-11.2-11.2l-38.4 38.4a8 8 0 0 1-11.2-11.2l38.4-38.4a23.84 23.84 0 1 1 33.76 33.76L928 130.24a8 8 0 0 1-4.96 2.4zM535.84 382.24a8 8 0 0 1-5.6-13.6L729.12 169.6a46.72 46.72 0 0 1 29.44-14.08 38.24 38.24 0 0 1 30.56 11.68 8 8 0 0 1-11.36 11.36 22.56 22.56 0 0 0-18.08-7.04 30.88 30.88 0 0 0-19.2 9.44L541.44 379.84a8 8 0 0 1-5.6 2.4zM113.12 939.84a8 8 0 0 1-5.6-2.4l-20.64-20.48a8 8 0 0 1-1.44-9.28l41.44-83.36a8 8 0 0 1 5.92-4.32 7.84 7.84 0 0 1 6.88 2.24l62.4 62.4a8 8 0 0 1-2.08 12.8l-83.36 41.6a8 8 0 0 1-3.52 0.8z m-10.72-30.08l12.32 12.32 68.16-33.92-46.72-46.56zM80 954.24a8 8 0 0 1-5.6-2.4l-2.4-2.4a8 8 0 0 1-1.44-9.44l8.8-16a13.92 13.92 0 0 1 1.76-2.56l9.92-9.44a8 8 0 0 1 11.36 0l10.08 10.08a8 8 0 0 1 0 11.36l-9.92 10.08-2.08 0.48-16.8 9.28a8 8 0 0 1-3.68 0.96z" /></svg>