<svg class="icon" style="width: 1em; height: 1em;vertical-align: middle;fill: currentColor;overflow: hidden;" viewBox="0 0 1024 1024" version="1.1" xmlns="http://www.w3.org/2000/svg"><path d="M469.8752 744.5504 469.8752 422.4576c0-13.696-11.0784-24.7808-24.7744-24.7808-13.7024 0-24.7808 11.0848-24.7808 24.7808l0 322.0928c0 13.696 11.0784 24.7744 24.7808 24.7744C458.7968 769.3248 469.8752 758.2464 469.8752 744.5504zM420.32 249.0176l198.2208 0c13.696 0 24.7744-11.0784 24.7744-24.7744s-11.0784-24.7808-24.7744-24.7808L420.32 199.4624c-13.696 0-24.7744 11.0848-24.7744 24.7808S406.624 249.0176 420.32 249.0176zM742.4192 372.9024c-13.7024 0-24.7744 11.0784-24.7744 24.7744l0 371.648c0 27.3664-22.1888 49.5552-49.5552 49.5552L370.7712 818.88c-27.3664 0-49.5552-22.1888-49.5552-49.5552l0-371.648c0-13.696-11.0784-24.7744-24.7744-24.7744-13.6704 0-24.7744 11.0784-24.7744 24.7744l0 99.1104 0 322.0928c0 27.36 22.1888 49.5488 49.5488 49.5488l396.4288 0c27.36 0 49.5488-22.1888 49.5488-49.5488L767.1936 496.7872 767.1936 397.6768C767.1936 383.9872 756.1088 372.9024 742.4192 372.9024zM816.7488 273.792 222.1056 273.792c-13.6704 0-24.7744 11.0848-24.7744 24.7808s11.104 24.7808 24.7744 24.7808l594.6432 0c13.6896 0 24.7744-11.0848 24.7744-24.7808S830.4384 273.792 816.7488 273.792zM618.5344 744.5504 618.5344 422.4576c0-13.696-11.0784-24.7808-24.7808-24.7808-13.696 0-24.7744 11.0848-24.7744 24.7808l0 322.0928c0 13.696 11.0784 24.7744 24.7744 24.7744C607.456 769.3248 618.5344 758.2464 618.5344 744.5504z" /></svg>